<svg width="64" height="64" viewBox="0 0 64 64" fill="none" xmlns="http://www.w3.org/2000/svg">
  <!-- Barcode scanner viewfinder corners -->
  <path d="M10 20v-8a2 2 0 0 1 2-2h8" stroke="#0F62FE" stroke-width="2" stroke-linecap="round"/>
  <path d="M44 10h8a2 2 0 0 1 2 2v8" stroke="#0F62FE" stroke-width="2" stroke-linecap="round"/>
  <path d="M54 44v8a2 2 0 0 1-2 2h-8" stroke="#0F62FE" stroke-width="2" stroke-linecap="round"/>
  <path d="M20 54h-8a2 2 0 0 1-2-2v-8" stroke="#0F62FE" stroke-width="2" stroke-linecap="round"/>
  <!-- Barcode vertical lines -->
  <rect x="16" y="16" width="3" height="32" fill="#0B2E64"/>
  <rect x="22" y="16" width="2" height="32" fill="#0B2E64"/>
  <rect x="27" y="16" width="5" height="32" fill="#0B2E64"/>
  <rect x="35" y="16" width="2" height="32" fill="#0B2E64"/>
  <rect x="40" y="16" width="4" height="32" fill="#0B2E64"/>
  <rect x="46" y="16" width="2" height="32" fill="#0B2E64"/>
  <!-- Laser scan beam (Cyan Neon Glow) -->
  <line x1="8" y1="32" x2="56" y2="32" stroke="#00F2FE" stroke-width="2" stroke-linecap="round"/>
  <circle cx="32" cy="32" r="3" fill="#00F2FE" fill-opacity="0.5"/>
</svg>
