<svg width="64" height="64" viewBox="0 0 64 64" fill="none" xmlns="http://www.w3.org/2000/svg">
  <!-- Duotone document fill -->
  <path d="M14 8h24l12 12v24a4 4 0 0 1-4 4H14a4 4 0 0 1-4-4V12a4 4 0 0 1 4-4Z" fill="#0F62FE" fill-opacity="0.15"/>
  <!-- Document body -->
  <path d="M14 8h24l12 12v24a4 4 0 0 1-4 4H14a4 4 0 0 1-4-4V12a4 4 0 0 1 4-4Z" stroke="#0B2E64" stroke-width="2" stroke-linejoin="round"/>
  <!-- Folded corner -->
  <path d="M38 8v12h12" stroke="#0F62FE" stroke-width="2" stroke-linejoin="round"/>
  <!-- Invoice lines -->
  <path d="M17 26h10M17 32h16M17 38h12" stroke="#0F62FE" stroke-width="2" stroke-linecap="round"/>
  <!-- Security shield / cryptographic seal -->
  <path d="M40 34l9 3v6c0 5.5-4 8.5-9 10.5-5-2-9-5-9-10.5v-6l9-3Z" fill="#00F2FE" fill-opacity="0.2"/>
  <path d="M40 34l9 3v6c0 5.5-4 8.5-9 10.5-5-2-9-5-9-10.5v-6l9-3Z" stroke="#0F62FE" stroke-width="2" stroke-linejoin="round"/>
  <!-- Check mark -->
  <path d="M36 44.5l3 3 5.5-6" stroke="#00F2FE" stroke-width="2" stroke-linecap="round" stroke-linejoin="round"/>
</svg>
