<svg width="64" height="64" viewBox="0 0 64 64" fill="none" xmlns="http://www.w3.org/2000/svg">
  <!-- Duotone clipboard fill -->
  <rect x="12" y="12" width="40" height="46" rx="4" fill="#0F62FE" fill-opacity="0.15"/>
  <!-- Clipboard body -->
  <rect x="12" y="12" width="40" height="46" rx="4" stroke="#0B2E64" stroke-width="2"/>
  <!-- Clip -->
  <path d="M26 8h12v6a2 2 0 0 1-2 2h-8a2 2 0 0 1-2-2V8Z" fill="#00F2FE" fill-opacity="0.2"/>
  <path d="M26 8h12v6a2 2 0 0 1-2 2h-8a2 2 0 0 1-2-2V8Z" stroke="#0B2E64" stroke-width="2" stroke-linejoin="round"/>
  <!-- Checklist boxes -->
  <rect x="18" y="24" width="6" height="6" rx="1.5" stroke="#0F62FE" stroke-width="2"/>
  <rect x="18" y="34" width="6" height="6" rx="1.5" stroke="#0F62FE" stroke-width="2"/>
  <rect x="18" y="44" width="6" height="6" rx="1.5" stroke="#0F62FE" stroke-width="2"/>
  <!-- Checks -->
  <path d="M19.5 27l1.5 1.5 2.5-3" stroke="#00F2FE" stroke-width="2" stroke-linecap="round" stroke-linejoin="round"/>
  <path d="M19.5 37l1.5 1.5 2.5-3" stroke="#00F2FE" stroke-width="2" stroke-linecap="round" stroke-linejoin="round"/>
  <!-- Checklist text lines -->
  <path d="M30 27h14M30 37h14M30 47h10" stroke="#0F62FE" stroke-width="2" stroke-linecap="round"/>
</svg>
